<svg
  version="1.1"
  xmlns="http://www.w3.org/2000/svg"
  xmlns:xlink="http://www.w3.org/1999/xlink"
  width="22px"
  height="20px"
  viewBox="0,0,256,256"
>
  <g transform="translate(-24.32,-24.32) scale(1.19,1.19)">
    <g
      fill="#ffffff"
      fill-rule="nonzero"
      stroke="none"
      stroke-width="1"
      stroke-linecap="butt"
      stroke-linejoin="miter"
      stroke-miterlimit="10"
      style="mix-blend-mode: normal"
    >
      <g transform="scale(10.66667,10.66667)">
        <path d="M4,4c-0.666,0 -1.25323,0.32708 -1.61523,0.83008c-0.244,0.338 -0.1362,0.81711 0.2168,1.03711l8.78125,5.47266c0.378,0.236 0.85637,0.236 1.23438,0l8.74414,-5.51953c0.367,-0.232 0.4585,-0.73622 0.1875,-1.07422c-0.365,-0.454 -0.92183,-0.74609 -1.54883,-0.74609zM21.51563,8.08594c-0.08363,0.00092 -0.16855,0.02397 -0.24805,0.07422l-8.65039,5.45508c-0.378,0.235 -0.85638,0.23405 -1.23438,-0.00195l-8.65234,-5.39062c-0.318,-0.198 -0.73047,0.03125 -0.73047,0.40625v9.37109c0,1.105 0.895,2 2,2h16c1.105,0 2,-0.895 2,-2v-9.43555c0,-0.282 -0.2335,-0.48128 -0.48437,-0.47852z" />
      </g>
    </g>
  </g>
</svg>